<svg width="420" height="112" viewBox="0 0 420 112" fill="none" xmlns="http://www.w3.org/2000/svg">
<g filter="url(#filter0_d_2150_597)">
<path fill-rule="evenodd" clip-rule="evenodd" d="M110 0C108.895 0 108 0.895432 108 2V102C108 103.105 108.895 104 110 104C111.105 104 112 103.105 112 102V2C112 0.895431 111.105 0 110 0ZM100 10C100 8.89543 100.895 8 102 8C103.105 8 104 8.89543 104 10V94C104 95.1046 103.105 96 102 96C100.895 96 100 95.1046 100 94V10ZM6 12C4.89543 12 4 12.8954 4 14V90C4 91.1046 4.89543 92 6 92C7.10457 92 8 91.1046 8 90V14C8 12.8954 7.10457 12 6 12ZM14 20C12.8954 20 12 20.8954 12 22V82C12 83.1046 12.8954 84 14 84C15.1046 84 16 83.1046 16 82V22C16 20.8954 15.1046 20 14 20ZM20 26C20 24.8954 20.8954 24 22 24C23.1046 24 24 24.8954 24 26V78C24 79.1046 23.1046 80 22 80C20.8954 80 20 79.1046 20 78V26ZM30 24C28.8954 24 28 24.8954 28 26V78C28 79.1046 28.8954 80 30 80C31.1046 80 32 79.1046 32 78V26C32 24.8954 31.1046 24 30 24ZM36 34C36 32.8954 36.8954 32 38 32C39.1046 32 40 32.8954 40 34V70C40 71.1046 39.1046 72 38 72C36.8954 72 36 71.1046 36 70V34ZM46 40C44.8954 40 44 40.8954 44 42V62C44 63.1046 44.8954 64 46 64C47.1046 64 48 63.1046 48 62V42C48 40.8954 47.1046 40 46 40ZM52 36C52 34.8954 52.8954 34 54 34C55.1046 34 56 34.8954 56 36V68C56 69.1046 55.1046 70 54 70C52.8954 70 52 69.1046 52 68V36ZM62 36C60.8954 36 60 36.8954 60 38V66C60 67.1046 60.8954 68 62 68C63.1046 68 64 67.1046 64 66V38C64 36.8954 63.1046 36 62 36ZM68 38C68 36.8954 68.8954 36 70 36C71.1046 36 72 36.8954 72 38V66C72 67.1046 71.1046 68 70 68C68.8954 68 68 67.1046 68 66V38ZM78 38C76.8954 38 76 38.8954 76 40V64C76 65.1046 76.8954 66 78 66C79.1046 66 80 65.1046 80 64V40C80 38.8954 79.1046 38 78 38ZM84 26C84 24.8954 84.8954 24 86 24C87.1046 24 88 24.8954 88 26V78C88 79.1046 87.1046 80 86 80C84.8954 80 84 79.1046 84 78V26ZM94 14C92.8954 14 92 14.8954 92 16V88C92 89.1046 92.8954 90 94 90C95.1046 90 96 89.1046 96 88V16C96 14.8954 95.1046 14 94 14ZM116 16C116 14.8954 116.895 14 118 14C119.105 14 120 14.8954 120 16V88C120 89.1046 119.105 90 118 90C116.895 90 116 89.1046 116 88V16ZM126 28C124.895 28 124 28.8954 124 30V74C124 75.1046 124.895 76 126 76C127.105 76 128 75.1046 128 74V30C128 28.8954 127.105 28 126 28ZM132 48C132 46.8954 132.895 46 134 46C135.105 46 136 46.8954 136 48V56C136 57.1046 135.105 58 134 58C132.895 58 132 57.1046 132 56V48ZM142 32C140.895 32 140 32.8954 140 34V70C140 71.1046 140.895 72 142 72C143.105 72 144 71.1046 144 70V34C144 32.8954 143.105 32 142 32ZM148 18C148 16.8954 148.895 16 150 16C151.105 16 152 16.8954 152 18V86C152 87.1046 151.105 88 150 88C148.895 88 148 87.1046 148 86V18ZM158 12C156.895 12 156 12.8954 156 14V90C156 91.1046 156.895 92 158 92C159.105 92 160 91.1046 160 90V14C160 12.8954 159.105 12 158 12ZM164 26C164 24.8954 164.895 24 166 24C167.105 24 168 24.8954 168 26V78C168 79.1046 167.105 80 166 80C164.895 80 164 79.1046 164 78V26ZM174 20C172.895 20 172 20.8954 172 22V82C172 83.1046 172.895 84 174 84C175.105 84 176 83.1046 176 82V22C176 20.8954 175.105 20 174 20ZM180 22C180 20.8954 180.895 20 182 20C183.105 20 184 20.8954 184 22V82C184 83.1046 183.105 84 182 84C180.895 84 180 83.1046 180 82V22ZM190 32C188.895 32 188 32.8954 188 34V70C188 71.1046 188.895 72 190 72C191.105 72 192 71.1046 192 70V34C192 32.8954 191.105 32 190 32ZM196 46C196 44.8954 196.895 44 198 44C199.105 44 200 44.8954 200 46V58C200 59.1046 199.105 60 198 60C196.895 60 196 59.1046 196 58V46ZM206 48C204.895 48 204 48.8954 204 50V54C204 55.1046 204.895 56 206 56C207.105 56 208 55.1046 208 54V50C208 48.8954 207.105 48 206 48ZM212 44C212 42.8954 212.895 42 214 42C215.105 42 216 42.8954 216 44V60C216 61.1046 215.105 62 214 62C212.895 62 212 61.1046 212 60V44ZM222 36C220.895 36 220 36.8954 220 38V66C220 67.1046 220.895 68 222 68C223.105 68 224 67.1046 224 66V38C224 36.8954 223.105 36 222 36ZM228 34C228 32.8954 228.895 32 230 32C231.105 32 232 32.8954 232 34V70C232 71.1046 231.105 72 230 72C228.895 72 228 71.1046 228 70V34ZM238 36C236.895 36 236 36.8954 236 38V66C236 67.1046 236.895 68 238 68C239.105 68 240 67.1046 240 66V38C240 36.8954 239.105 36 238 36ZM244 34C244 32.8954 244.895 32 246 32C247.105 32 248 32.8954 248 34V70C248 71.1046 247.105 72 246 72C244.895 72 244 71.1046 244 70V34ZM254 38C252.895 38 252 38.8954 252 40V64C252 65.1046 252.895 66 254 66C255.105 66 256 65.1046 256 64V40C256 38.8954 255.105 38 254 38ZM260 26C260 24.8954 260.895 24 262 24C263.105 24 264 24.8954 264 26V78C264 79.1046 263.105 80 262 80C260.895 80 260 79.1046 260 78V26ZM270 34C268.895 34 268 34.8954 268 36V68C268 69.1046 268.895 70 270 70C271.105 70 272 69.1046 272 68V36C272 34.8954 271.105 34 270 34ZM276 24C276 22.8954 276.895 22 278 22C279.105 22 280 22.8954 280 24V80C280 81.1046 279.105 82 278 82C276.895 82 276 81.1046 276 80V24ZM286 26C284.895 26 284 26.8954 284 28V76C284 77.1046 284.895 78 286 78C287.105 78 288 77.1046 288 76V28C288 26.8954 287.105 26 286 26ZM292 34C292 32.8954 292.895 32 294 32C295.105 32 296 32.8954 296 34V70C296 71.1046 295.105 72 294 72C292.895 72 292 71.1046 292 70V34ZM302 44C300.895 44 300 44.8954 300 46V58C300 59.1046 300.895 60 302 60C303.105 60 304 59.1046 304 58V46C304 44.8954 303.105 44 302 44ZM308 50C308 48.8954 308.895 48 310 48C311.105 48 312 48.8954 312 50V54C312 55.1046 311.105 56 310 56C308.895 56 308 55.1046 308 54V50ZM318 44C316.895 44 316 44.8954 316 46V58C316 59.1046 316.895 60 318 60C319.105 60 320 59.1046 320 58V46C320 44.8954 319.105 44 318 44ZM324 40C324 38.8954 324.895 38 326 38C327.105 38 328 38.8954 328 40V64C328 65.1046 327.105 66 326 66C324.895 66 324 65.1046 324 64V40ZM334 34C332.895 34 332 34.8954 332 36V68C332 69.1046 332.895 70 334 70C335.105 70 336 69.1046 336 68V36C336 34.8954 335.105 34 334 34ZM340 40C340 38.8954 340.895 38 342 38C343.105 38 344 38.8954 344 40V64C344 65.1046 343.105 66 342 66C340.895 66 340 65.1046 340 64V40ZM350 42C348.895 42 348 42.8954 348 44V60C348 61.1046 348.895 62 350 62C351.105 62 352 61.1046 352 60V44C352 42.8954 351.105 42 350 42ZM356 42C356 40.8954 356.895 40 358 40C359.105 40 360 40.8954 360 42V62C360 63.1046 359.105 64 358 64C356.895 64 356 63.1046 356 62V42ZM366 34C364.895 34 364 34.8954 364 36V68C364 69.1046 364.895 70 366 70C367.105 70 368 69.1046 368 68V36C368 34.8954 367.105 34 366 34ZM372 42C372 40.8954 372.895 40 374 40C375.105 40 376 40.8954 376 42V62C376 63.1046 375.105 64 374 64C372.895 64 372 63.1046 372 62V42ZM382 34C380.895 34 380 34.8954 380 36V68C380 69.1046 380.895 70 382 70C383.105 70 384 69.1046 384 68V36C384 34.8954 383.105 34 382 34ZM388 38C388 36.8954 388.895 36 390 36C391.105 36 392 36.8954 392 38V66C392 67.1046 391.105 68 390 68C388.895 68 388 67.1046 388 66V38ZM398 40C396.895 40 396 40.8954 396 42V62C396 63.1046 396.895 64 398 64C399.105 64 400 63.1046 400 62V42C400 40.8954 399.105 40 398 40ZM404 46C404 44.8954 404.895 44 406 44C407.105 44 408 44.8954 408 46V58C408 59.1046 407.105 60 406 60C404.895 60 404 59.1046 404 58V46ZM414 48C412.895 48 412 48.8954 412 50V54C412 55.1046 412.895 56 414 56C415.105 56 416 55.1046 416 54V50C416 48.8954 415.105 48 414 48Z" fill="url(#paint0_linear_2150_597)"/>
</g>
<defs>
<filter id="filter0_d_2150_597" x="0" y="0" width="420" height="112" filterUnits="userSpaceOnUse" color-interpolation-filters="sRGB">
<feFlood flood-opacity="0" result="BackgroundImageFix"/>
<feColorMatrix in="SourceAlpha" type="matrix" values="0 0 0 0 0 0 0 0 0 0 0 0 0 0 0 0 0 0 127 0" result="hardAlpha"/>
<feOffset dy="4"/>
<feGaussianBlur stdDeviation="2"/>
<feComposite in2="hardAlpha" operator="out"/>
<feColorMatrix type="matrix" values="0 0 0 0 0 0 0 0 0 0 0 0 0 0 0 0 0 0 0.25 0"/>
<feBlend mode="normal" in2="BackgroundImageFix" result="effect1_dropShadow_2150_597"/>
<feBlend mode="normal" in="SourceGraphic" in2="effect1_dropShadow_2150_597" result="shape"/>
</filter>
<linearGradient id="paint0_linear_2150_597" x1="4" y1="52" x2="416" y2="52" gradientUnits="userSpaceOnUse">
<stop stop-color="#FC4A1A"/>
<stop offset="1" stop-color="#F7B733"/>
</linearGradient>
</defs>
</svg>
